HIERARCHY
ROOT pelvis
{
  OFFSET 0 100 0
  CHANNELS 6 Xposition Yposition Zposition Zrotation Xrotation Yrotation
  JOINT pelvis_right_femur
  {
    OFFSET -10.78128 -3.44521 -0.5502486
    CHANNELS 3 Zrotation Xrotation Yrotation
    JOINT right_femur_tibia
    {
      OFFSET -0.8047443 -44.0398 -0.1307829
      CHANNELS 3 Zrotation Xrotation Yrotation
      JOINT right_tibia_foot
      {
        OFFSET 3.006224 -47.83518 -5
        CHANNELS 3 Zrotation Xrotation Yrotation
        End Site
        {
          OFFSET 0 -5 15
        }
      }
    }
  }
  JOINT pelvis_left_femur
  {
    OFFSET 10.78128 -3.44521 -0.5502486
    CHANNELS 3 Zrotation Xrotation Yrotation
    JOINT left_femur_tibia
    {
      OFFSET 0.8047443 -44.0398 -0.1307829
      CHANNELS 3 Zrotation Xrotation Yrotation
      JOINT left_tibia_foot
      {
        OFFSET -4.370144 -48.10324 -4.275266
        CHANNELS 3 Zrotation Xrotation Yrotation
        End Site
        {
          OFFSET 0 -5 15
        }
      }
    }
  }
  JOINT pelvis_spine1
  {
    OFFSET 0 6.468898 -3.129235
    CHANNELS 3 Zrotation Xrotation Yrotation
    JOINT spine1
    {
      OFFSET 0 23.15396 4.99043
      CHANNELS 3 Zrotation Xrotation Yrotation
      JOINT spine2
      {
        OFFSET 0 20.79997 -5.064912
        CHANNELS 3 Zrotation Xrotation Yrotation
        JOINT neck
        {
          OFFSET 0 14.38658 9.616178
          CHANNELS 3 Zrotation Xrotation Yrotation
          End Site
          {
            OFFSET 0 20 0
          }
        }
      }
      JOINT right_manubrium
      {
        OFFSET -5.722621 16.35077 3.967754
        CHANNELS 3 Zrotation Xrotation Yrotation
        JOINT right_clavicle
        {
          OFFSET -13.16364 1.694482 -4.693211
          CHANNELS 3 Zrotation Xrotation Yrotation
          JOINT right_humerus
          {
            OFFSET -28.5034 -0.3100689 -2.792744
            CHANNELS 3 Zrotation Xrotation Yrotation
            JOINT right_radius
            {
              OFFSET -25.15693 0.02248979 -1.271978
              CHANNELS 3 Zrotation Xrotation Yrotation
              End Site
              {
                OFFSET -15 0 0
              }
            }
          }
        }
      }
      JOINT left_manubrium
      {
        OFFSET 5.722621 16.35077 3.967754
        CHANNELS 3 Zrotation Xrotation Yrotation
        JOINT left_clavicle
        {
          OFFSET 13.16364 1.694482 -4.693211
          CHANNELS 3 Zrotation Xrotation Yrotation
          JOINT left_humerus
          {
            OFFSET 29.39168 -1.063119 -2.237045
            CHANNELS 3 Zrotation Xrotation Yrotation
            JOINT left_radius
            {
              OFFSET 24.59957 -0.9528479 0.9047498
              CHANNELS 3 Zrotation Xrotation Yrotation
              End Site
              {
                OFFSET 15 -0 -0
              }
            }
          }
        }
      }
    }
  }
}
MOTION
Frames: 23
Frame Time: 0.0416666666667
0 103.5113 0 0.6919761 -1.361747 -0.04057687 3.479726 -16.38139 9.35696 -0 39.96119 -0 -5.521528 -16.99362 -3.817208 -6.821919 10.787 -23.28889 -0 5.432159 -0 8.937496 -16.20874 27.36706 -3.703437 -3.400559 4.287017 2.7027 9.393923 -7.707602 1.131167 22.49251 7.256515 3.032841 -24.55855 9.71693 6.38461 -19.74404 11.75275 85.5946 35.47667 -18.7591 -0 0 15.83407 -7.555831 8.316081 4.66277 5.217228 -19.16103 -1.894981 -94.17457 27.33929 22.28426 0 0 -14.67598 7.20245 17.16614 5.610959
0.2913845 103.4864 1.359216 0.6821386 -1.339338 -0.09408548 3.49888 -16.45636 9.366274 -0 39.87786 -0 -5.514548 -16.97343 -3.829091 -6.817564 10.81931 -23.28981 -0 5.410229 -0 8.865115 -16.29288 27.33572 -3.694981 -3.392013 4.290438 2.699972 9.372514 -7.706688 1.139425 22.48791 7.260209 3.031303 -24.57444 9.731852 6.367047 -19.73742 11.73707 85.61662 35.45807 -18.79546 -0 0 15.82427 -7.530505 8.321922 4.643485 5.225391 -19.17016 -1.882721 -94.20515 27.44849 22.31347 0 0 -14.75829 7.099129 17.18681 5.758419
0.5949 103.289 3.077328 0.4295786 -0.09764639 -0.08072287 4.440283 -20.46176 9.224492 -0 35.76573 -0 -5.184322 -15.3066 -3.383798 -6.828085 11.20814 -22.6341 -0 4.890565 -0 9.32595 -17.63091 27.06949 -3.568867 -3.07834 4.544105 2.772866 9.223678 -7.663488 1.400897 21.91072 7.263914 3.149674 -25.183 10.0549 6.185542 -19.54105 11.52209 85.76652 35.76371 -19.08649 -0 0 15.49288 -7.071561 8.583777 4.251904 6.052204 -19.66795 -1.425585 -93.44856 26.3643 21.29268 0 0 -16.52582 9.108578 16.61609 3.820166
0.8957698 102.9276 5.13002 0.1916277 0.728724 0.02814949 5.085857 -23.40802 8.878889 -0 32.51579 -0 -5.140207 -13.67096 -3.048504 -6.752127 11.76556 -21.90241 -0 4.694262 -0 9.075969 -18.82885 26.38635 -3.433893 -2.782927 4.573779 2.85855 9.088964 -7.707475 1.510152 21.52855 7.320034 3.255718 -25.60267 10.20756 5.926206 -19.29908 11.35415 86.06589 35.67578 -19.52877 -0 0 14.99503 -6.924324 8.634679 4.080066 6.607344 -20.16502 -1.168236 -92.81979 25.83967 20.39769 0 0 -18.01081 10.07176 16.12243 2.883354
1.196137 102.4363 7.568803 -0.1226648 1.673549 0.239042 5.868702 -26.54148 8.573698 -0 29.05829 -0 -5.162942 -11.68817 -2.655407 -6.643157 12.3535 -21.07004 -0 4.821956 -0 8.556466 -20.08939 25.45717 -3.229287 -2.465868 4.575457 2.960968 8.976221 -7.79725 1.591309 21.06577 7.418796 3.421396 -26.07323 10.33124 5.705277 -19.03754 11.20734 86.38433 35.6581 -20.09031 -0 0 14.48692 -6.800922 8.731304 3.927681 7.174026 -20.71387 -0.9061509 -92.26488 25.38127 19.63077 0 0 -19.63387 10.82209 15.55724 2.197455
1.490244 101.8395 10.42649 -0.5069065 2.51223 0.5580641 6.625267 -29.38729 8.222086 -0 25.81391 -0 -5.346482 -9.623932 -2.301215 -6.446959 13.05108 -20.15521 -0 5.417548 -0 7.510201 -21.26792 24.16874 -2.937546 -2.136104 4.465253 3.061241 8.853703 -7.923658 1.624299 20.64945 7.55848 3.597904 -26.48189 10.41676 5.460548 -18.70737 11.06056 86.77473 35.5155 -20.7494 -0 0 13.88037 -6.821411 8.83848 3.835097 7.638204 -21.26715 -0.7129507 -91.77659 25.17002 18.93209 0 0 -21.15379 11.12864 15.06975 1.968672
1.777299 101.187 13.73417 -0.9770395 3.283981 0.9834336 7.407766 -31.9099 7.910472 -0 22.87795 -0 -5.669091 -7.564434 -1.977997 -6.160309 13.75047 -19.20484 -0 6.644613 -0 5.982041 -22.21952 22.54904 -2.531121 -1.805 4.272738 3.143469 8.733614 -8.070811 1.627099 20.25378 7.730035 3.793727 -26.82355 10.47546 5.255083 -18.31872 10.91819 87.17043 35.3859 -21.43976 -0 0 13.25991 -6.946012 9.029378 3.781106 7.997434 -21.77175 -0.574192 -91.40395 25.1524 18.39085 0 0 -22.4693 11.07881 14.66482 2.132758
2.057043 100.5372 17.52155 -1.526133 3.93216 1.502264 8.172932 -33.91801 7.612098 -0 20.38371 -0 -6.150118 -5.665367 -1.69963 -5.76705 14.38739 -18.22291 -0 8.693324 -0 3.973443 -22.74616 20.58217 -1.994365 -1.483681 3.991744 3.190598 8.619285 -8.224588 1.600751 19.90886 7.914783 3.992202 -27.04431 10.49269 5.10017 -17.85705 10.77676 87.55464 35.28995 -22.10042 -0 0 12.62968 -7.199682 9.318587 3.781461 8.217368 -22.18369 -0.5111474 -91.12603 25.27858 17.97866 0 0 -23.44151 10.7338 14.34772 2.608018
2.332246 99.96542 21.81201 -2.132569 4.418289 2.086613 8.880171 -35.19015 7.305882 -0 18.45492 -0 -6.786166 -4.093573 -1.467221 -5.267423 14.83082 -17.2156 -0 11.77845 -0 1.574914 -22.60717 18.30959 -1.321451 -1.190797 3.64118 3.186582 8.526129 -8.368898 1.542397 19.63309 8.088967 4.178536 -27.10084 10.44255 5.023744 -17.32938 10.64468 87.89693 35.28782 -22.66057 -0 0 12.02217 -7.584885 9.715744 3.856678 8.266927 -22.45262 -0.5384874 -90.94004 25.47195 17.70968 0 0 -23.94207 10.1749 14.0909 3.299711
2.60765 99.55937 26.61616 -2.744573 4.674195 2.686337 9.447832 -35.42356 6.927399 -0 17.1876 -0 -7.559744 -3.04177 -1.287388 -4.680598 14.92185 -16.16525 -0 16.13876 -0 -1.031812 -21.54174 15.83795 -0.5325537 -0.9512049 3.254311 3.122612 8.474923 -8.486312 1.439696 19.46198 8.22081 4.32289 -26.95245 10.28716 5.028617 -16.75532 10.53795 88.19108 35.39331 -23.05783 -0 0 11.43727 -8.107554 10.19313 4.038253 8.109092 -22.53993 -0.6729825 -90.81659 25.6319 17.56755 0 0 -23.87435 9.502178 13.84629 4.07866
2.88868 99.41731 31.91652 -3.272541 4.607309 3.223218 9.777032 -34.25728 6.416122 -0 16.64023 -0 -8.41485 -2.707639 -1.17881 -4.057718 14.45938 -15.04868 -0 21.99524 -0 -3.551715 -19.34552 13.38187 0.3084715 -0.7892221 2.897447 3.001284 8.491815 -8.553074 1.278221 19.44342 8.273396 4.383951 -26.57855 9.991614 5.094129 -16.17996 10.48265 88.44758 35.5754 -23.24204 -0 0 10.85165 -8.754699 10.68959 4.35054 7.710117 -22.42465 -0.9190513 -90.72059 25.66341 17.53374 0 0 -23.20695 8.817967 13.55757 4.813363
3.177945 99.63734 37.64732 -3.585936 4.095915 3.590887 9.779271 -31.35683 5.758083 -0 16.76988 -0 -9.248031 -3.228159 -1.173645 -3.485381 13.21485 -13.84917 -0 29.47538 -0 -5.617391 -16.00987 11.25859 1.074378 -0.7073957 2.677138 2.83787 8.607345 -8.533466 1.056044 19.63476 8.20884 4.321089 -25.98216 9.540404 5.171179 -15.67298 10.5104 88.68801 35.74331 -23.18139 -0 0 10.21704 -9.494984 11.11748 4.790299 7.060025 -22.1255 -1.260751 -90.61013 25.49775 17.56998 0 0 -22.01783 8.218909 13.17758 5.379103
3.470959 100.2952 43.67358 -3.53671 3.019131 3.674793 9.410953 -26.60199 5.02854 -0 17.33494 -0 -9.918237 -4.5655 -1.292502 -3.066991 10.93757 -12.5852 -0 38.44061 -0 -6.913013 -11.89864 9.826411 1.577309 -0.6536953 2.736606 2.647474 8.856662 -8.373575 0.8072288 20.07841 7.99971 4.131758 -25.18247 8.952068 5.205661 -15.32357 10.64805 88.90501 35.784 -22.84967 -0 0 9.517729 -10.2976 11.3991 5.311616 6.210196 -21.72144 -1.660936 -90.46803 25.12613 17.64024 0 0 -20.51117 7.764164 12.69677 5.705363
3.754419 101.4017 49.78549 -3.022763 1.345384 3.404594 8.672517 -20.32044 4.353765 -0 17.78964 -0 -10.29428 -6.404591 -1.487335 -2.869485 7.363982 -11.32173 -0 48.18341 -0 -7.333932 -7.830146 9.366703 1.621352 -0.5086675 3.219481 2.419621 9.271653 -8.007822 0.6112859 20.75783 7.64746 3.897054 -24.20239 8.275245 5.176215 -15.22889 10.90199 89.00224 35.64206 -22.19517 -0 0 8.880593 -11.1843 11.5112 5.848774 5.311744 -21.35464 -2.07518 -90.35025 24.61519 17.77198 0 0 -18.97013 7.438401 12.16596 5.832282
4.0123 102.8404 55.73617 -2.073071 -0.7208905 2.822013 7.595729 -13.36995 3.791901 -0 17.32728 -0 -10.32609 -8.206467 -1.598754 -2.849549 2.30484 -10.12734 -0 57.05486 -0 -7.056712 -4.871027 9.941504 1.10739 -0.1488436 4.185847 2.108714 9.839026 -7.397125 0.5523163 21.55822 7.201794 3.774912 -23.0853 7.564964 5.1057 -15.47404 11.24234 88.77154 35.39241 -21.12185 -0 0 8.642827 -12.25757 11.4877 6.383307 4.609715 -21.18059 -2.45659 -90.40008 24.08438 18.11584 0 0 -17.64841 7.148902 11.68224 5.917992
4.239889 104.3246 61.34277 -0.8848526 -2.679297 2.094157 6.291034 -6.822092 3.260718 -0 15.31299 -0 -10.09003 -9.515858 -1.429896 -2.811558 -4.077652 -8.977157 -0 62.49616 -0 -6.42209 -3.762468 11.30437 0.1362858 0.4156206 5.49558 1.681518 10.42886 -6.593049 0.6317088 22.2917 6.758059 3.877741 -21.93754 6.866379 5.003939 -16.08782 11.5944 87.9905 35.1981 -19.52838 -0 0 9.187253 -13.61279 11.35434 6.988731 4.338919 -21.25159 -2.726499 -90.73472 23.6249 18.84951 0 0 -16.66411 6.814972 11.31378 6.095365
4.453496 105.4584 66.59605 0.23378 -3.981693 1.423236 5.026087 -1.334558 2.658116 -0 11.99547 -0 -9.721183 -10.3442 -0.9462645 -2.459324 -10.9908 -7.713945 -0 62.13562 -0 -5.73299 -4.335325 13.01993 -0.9741776 0.9881446 6.771031 1.189938 10.79652 -5.754739 0.7360747 22.80375 6.408248 4.11549 -20.91574 6.234984 4.799667 -16.99905 11.85412 86.5991 35.12067 -17.37656 -0 0 10.60287 -15.17739 11.08389 7.773477 4.552186 -21.40037 -2.764628 -91.28508 23.23301 19.94106 0 0 -15.94298 6.456142 11.01525 6.311128
4.683681 105.9077 71.65232 0.9757616 -4.455059 0.9293657 4.166112 3.178689 2.053268 -0 8.618724 -0 -9.243731 -11.20874 -0.3648067 -1.559346 -17.26226 -6.191818 -0 55.47784 -0 -5.174355 -5.601945 14.75529 -1.815478 1.354196 7.586136 0.7571355 10.74239 -5.052042 0.7402469 23.05878 6.177277 4.224311 -20.1345 5.757187 4.379137 -18.07369 11.94091 84.76716 34.96115 -14.72088 -0 0 12.61451 -16.71573 10.66171 8.789799 5.048132 -21.28323 -2.499212 -91.85453 22.87911 21.13328 0 0 -15.22665 6.089456 10.64653 6.472496
4.962544 105.5468 76.70896 1.153411 -4.361027 0.6074809 3.929563 7.174325 1.615092 -0 6.439796 -0 -8.54694 -12.69183 0.06932367 -0.1319368 -22.06979 -4.496818 -0 44.37674 -0 -4.838695 -6.566455 16.37031 -2.110139 1.468038 7.769366 0.472162 10.27548 -4.549767 0.6232519 23.10874 6.030761 4.009723 -19.62489 5.511028 3.711485 -19.20478 11.84492 82.78458 34.40653 -11.72581 -0 0 14.88777 -18.05381 10.15412 10.03296 5.513893 -20.64024 -1.999986 -92.3545 22.60806 22.23922 0 0 -14.20446 5.597919 10.10797 6.710915
5.31901 104.4801 81.9208 0.7923008 -4.036109 0.3491511 4.184364 10.89895 1.350456 -0 5.780852 -0 -7.599617 -14.9256 0.3650337 1.498488 -25.29498 -2.977409 -0 31.87211 -0 -4.714434 -6.848928 17.75472 -1.865269 1.408644 7.490867 0.3267048 9.589797 -4.211491 0.4564416 23.02018 5.946978 3.536647 -19.37453 5.500777 2.917581 -20.30434 11.61071 80.91391 33.41205 -8.688092 -0 0 17.19056 -19.23048 9.657407 11.45808 5.746745 -19.53532 -1.434826 -92.82399 22.46748 23.245 0 0 -12.72818 4.89902 9.457129 7.213226
5.778891 102.9708 87.40767 0.1533464 -3.654344 0.005558751 4.492342 14.23646 1.086609 -0 6.17112 -0 -6.564215 -17.38603 0.7433332 2.827224 -27.23086 -2.059041 -0 20.92809 -0 -4.657284 -6.63702 18.77554 -1.364216 1.235812 7.09608 0.23739 8.927293 -3.969797 0.3364954 22.85581 5.938775 3.085346 -19.32982 5.642746 2.214104 -21.2182 11.29191 79.3184 32.33173 -5.990498 -0 0 19.26405 -20.41396 9.216725 12.92357 5.744908 -18.31626 -0.9746085 -93.24118 22.38374 24.09382 0 0 -10.91046 4.165039 8.884437 7.860743
6.365017 101.3361 93.27755 -0.3439847 -3.29967 -0.5190629 4.348406 16.99024 0.7355636 -0 7.182314 -0 -5.624152 -19.0333 1.340569 3.346139 -28.20511 -2.03308 -0 13.72926 -0 -4.467254 -6.34411 19.38465 -1.03254 0.9388257 6.914003 0.1015074 8.470697 -3.756126 0.3513162 22.67592 6.000937 2.937226 -19.38244 5.818488 1.768918 -21.75326 10.93895 78.11243 31.55831 -4.004249 -0 0 20.80629 -21.71382 8.818649 14.1713 5.631069 -17.3356 -0.7416945 -93.5033 22.21563 24.64931 0 0 -9.036345 3.663399 8.548377 8.333257
7.093668 99.86231 99.61929 -0.3092535 -3.091482 -1.188292 3.457191 19.17098 0.4839228 -0 9.183961 -0 -4.777214 -18.72577 2.013901 2.723543 -28.39802 -2.930974 -0 11.10364 -0 -4.064236 -6.318231 19.66389 -1.223216 0.4676755 7.125385 -0.1461532 8.294648 -3.507795 0.5463504 22.51474 6.07717 3.162816 -19.42148 5.946772 1.593859 -21.82922 10.60887 77.47041 31.08827 -3.003383 -0 0 21.66998 -23.04372 8.446026 14.94147 5.510674 -16.68963 -0.7707517 -93.60964 21.93311 24.96016 0 0 -7.395316 3.392282 8.39692 8.579385
